<svg xmlns="http://www.w3.org/2000/svg" xmlns:xlink="http://www.w3.org/1999/xlink" width="50" zoomAndPan="magnify" viewBox="0 0 37.5 37.499999" height="50" preserveAspectRatio="xMidYMid meet" version="1.0"><defs><clipPath id="9427321203"><path d="M 11.101562 12.824219 L 19 12.824219 L 19 23.925781 L 11.101562 23.925781 Z M 11.101562 12.824219 " clip-rule="nonzero"/></clipPath><clipPath id="2736bbf65f"><path d="M 18 12.824219 L 25.90625 12.824219 L 25.90625 23.925781 L 18 23.925781 Z M 18 12.824219 " clip-rule="nonzero"/></clipPath><clipPath id="79310983d8"><path d="M 0 1.714844 L 37.007812 1.714844 L 37.007812 29.839844 L 0 29.839844 Z M 0 1.714844 " clip-rule="nonzero"/></clipPath><clipPath id="7aac7d5a17"><path d="M 0 0.714844 L 37.007812 0.714844 L 37.007812 28.703125 L 0 28.703125 Z M 0 0.714844 " clip-rule="nonzero"/></clipPath><clipPath id="a2f71ac3f6"><rect x="0" width="38" y="0" height="29"/></clipPath></defs><g clip-path="url(#9427321203)"><path fill="#ffffff" d="M 14.882812 17.550781 C 14.234375 17.550781 13.632812 17.734375 13.125 18.054688 C 13.128906 18.027344 13.125 17.996094 13.132812 17.914062 C 13.140625 17.832031 13.152344 17.773438 13.164062 17.707031 C 13.183594 17.613281 13.203125 17.542969 13.210938 17.503906 C 13.308594 17.15625 13.445312 16.847656 13.445312 16.847656 C 13.496094 16.742188 13.582031 16.5625 13.703125 16.367188 C 13.902344 16.050781 14.105469 15.839844 14.390625 15.558594 C 14.980469 14.964844 15.425781 14.445312 16.226562 13.902344 C 16.324219 13.835938 16.410156 13.753906 16.507812 13.691406 C 16.507812 13.691406 16.746094 13.53125 16.808594 13.40625 C 16.824219 13.371094 16.824219 13.335938 16.824219 13.335938 C 16.824219 13.3125 16.816406 13.292969 16.800781 13.257812 C 16.769531 13.199219 16.742188 13.15625 16.726562 13.136719 C 16.683594 13.078125 16.683594 13.085938 16.636719 13.027344 C 16.582031 12.953125 16.574219 12.929688 16.535156 12.902344 C 16.535156 12.902344 16.496094 12.875 16.453125 12.863281 C 16.324219 12.824219 16.117188 13.027344 15.960938 13.160156 C 15.820312 13.285156 15.660156 13.386719 15.507812 13.5 C 15.21875 13.722656 15.207031 13.714844 14.90625 13.941406 C 14.773438 14.039062 14.3125 14.386719 13.785156 14.855469 C 13.710938 14.921875 13.640625 14.980469 13.550781 15.066406 C 13.46875 15.144531 13.234375 15.371094 12.945312 15.699219 C 12.867188 15.789062 12.609375 16.085938 12.375 16.414062 C 12.105469 16.792969 11.613281 17.476562 11.324219 18.488281 C 11.117188 19.226562 11.109375 19.8125 11.109375 19.992188 C 11.109375 20.292969 11.136719 20.535156 11.15625 20.6875 C 11.210938 21.089844 11.28125 21.59375 11.582031 22.144531 C 11.960938 22.835938 12.535156 23.289062 12.976562 23.515625 C 13.277344 23.667969 13.605469 23.761719 13.621094 23.769531 C 13.675781 23.785156 13.917969 23.851562 14.242188 23.886719 C 14.515625 23.917969 14.730469 23.914062 14.816406 23.910156 C 14.820312 23.910156 14.824219 23.910156 14.832031 23.910156 C 14.847656 23.910156 14.867188 23.910156 14.882812 23.910156 C 16.679688 23.910156 18.136719 22.488281 18.136719 20.730469 C 18.136719 18.976562 16.679688 17.550781 14.882812 17.550781 Z M 14.882812 17.550781 " fill-opacity="1" fill-rule="nonzero"/></g><g clip-path="url(#2736bbf65f)"><path fill="#ffffff" d="M 22.648438 17.558594 C 21.996094 17.558594 21.394531 17.746094 20.886719 18.0625 C 20.890625 18.035156 20.886719 18.003906 20.894531 17.921875 C 20.902344 17.839844 20.914062 17.78125 20.925781 17.714844 C 20.945312 17.621094 20.964844 17.550781 20.972656 17.511719 C 21.070312 17.164062 21.207031 16.855469 21.207031 16.855469 C 21.257812 16.75 21.34375 16.570312 21.464844 16.375 C 21.664062 16.058594 21.867188 15.847656 22.152344 15.566406 C 22.742188 14.976562 23.1875 14.453125 23.988281 13.910156 C 24.085938 13.84375 24.171875 13.761719 24.269531 13.699219 C 24.269531 13.699219 24.507812 13.539062 24.570312 13.414062 C 24.585938 13.378906 24.585938 13.34375 24.585938 13.34375 C 24.585938 13.320312 24.578125 13.300781 24.5625 13.265625 C 24.53125 13.207031 24.503906 13.164062 24.488281 13.144531 C 24.445312 13.085938 24.445312 13.09375 24.398438 13.035156 C 24.34375 12.960938 24.335938 12.9375 24.296875 12.910156 C 24.296875 12.910156 24.257812 12.882812 24.214844 12.871094 C 24.085938 12.832031 23.878906 13.035156 23.722656 13.167969 C 23.582031 13.292969 23.421875 13.394531 23.269531 13.507812 C 22.980469 13.730469 22.96875 13.722656 22.667969 13.949219 C 22.535156 14.046875 22.074219 14.394531 21.546875 14.863281 C 21.472656 14.929688 21.402344 14.988281 21.3125 15.078125 C 21.230469 15.152344 20.996094 15.378906 20.707031 15.707031 C 20.628906 15.796875 20.371094 16.09375 20.136719 16.421875 C 19.867188 16.800781 19.375 17.484375 19.085938 18.496094 C 18.878906 19.234375 18.871094 19.820312 18.871094 20 C 18.871094 20.300781 18.898438 20.542969 18.917969 20.695312 C 18.972656 21.097656 19.042969 21.601562 19.34375 22.152344 C 19.722656 22.84375 20.296875 23.296875 20.738281 23.523438 C 21.039062 23.675781 21.367188 23.769531 21.382812 23.777344 C 21.4375 23.789062 21.679688 23.859375 22.003906 23.894531 C 22.277344 23.925781 22.492188 23.921875 22.578125 23.917969 C 22.582031 23.917969 22.585938 23.917969 22.59375 23.917969 C 22.609375 23.917969 22.628906 23.917969 22.644531 23.917969 C 24.441406 23.917969 25.898438 22.496094 25.898438 20.738281 C 25.898438 18.980469 24.441406 17.558594 22.644531 17.558594 Z M 22.648438 17.558594 " fill-opacity="1" fill-rule="nonzero"/></g><g clip-path="url(#79310983d8)"><g transform="matrix(1, 0, 0, 1, 0, 1)"><g clip-path="url(#a2f71ac3f6)"><g clip-path="url(#7aac7d5a17)"><path fill="#d59e25" d="M 21.058594 19.949219 C 21.058594 23.914062 24.277344 27.128906 28.25 27.128906 C 32.222656 27.128906 35.441406 23.914062 35.441406 19.949219 C 35.441406 16.445312 32.929688 13.527344 29.601562 12.894531 C 28.804688 12.746094 28.144531 11.804688 28.6875 10.925781 C 30.0625 8.707031 32.402344 6.628906 34.023438 5.445312 C 34.34375 5.210938 34.4375 4.816406 34.304688 4.527344 L 33.308594 2.378906 C 30.550781 3.128906 27.828125 5.144531 25.648438 7.808594 C 23.359375 10.597656 21.734375 14.019531 21.296875 17.230469 C 21.167969 18.164062 21.058594 19.0625 21.058594 19.949219 Z M 1.5625 19.949219 C 1.5625 23.914062 4.78125 27.128906 8.757812 27.128906 C 12.730469 27.128906 15.949219 23.914062 15.949219 19.949219 C 15.949219 16.445312 13.433594 13.527344 10.109375 12.894531 C 9.3125 12.746094 8.652344 11.804688 9.195312 10.925781 C 10.570312 8.707031 12.90625 6.628906 14.527344 5.445312 C 14.851562 5.210938 14.941406 4.816406 14.808594 4.527344 L 13.8125 2.378906 C 11.058594 3.128906 8.335938 5.144531 6.152344 7.808594 C 3.863281 10.597656 2.242188 14.019531 1.800781 17.230469 C 1.671875 18.164062 1.5625 19.0625 1.5625 19.949219 Z M 19.492188 19.949219 C 19.492188 18.945312 19.617188 17.953125 19.746094 17.019531 C 20.230469 13.472656 22 9.789062 24.4375 6.816406 C 26.871094 3.847656 30.035156 1.503906 33.382812 0.746094 C 33.867188 0.636719 34.34375 0.890625 34.542969 1.320312 L 35.722656 3.871094 C 36.203125 4.90625 35.800781 6.085938 34.945312 6.710938 C 33.480469 7.777344 31.472656 9.566406 30.226562 11.429688 C 34.109375 12.324219 37.007812 15.796875 37.007812 19.949219 C 37.007812 24.78125 33.085938 28.695312 28.25 28.695312 C 23.414062 28.695312 19.492188 24.78125 19.492188 19.949219 Z M 0 19.949219 C 0 18.945312 0.125 17.953125 0.253906 17.019531 C 0.738281 13.472656 2.507812 9.789062 4.945312 6.816406 C 7.375 3.847656 10.542969 1.503906 13.890625 0.746094 C 14.371094 0.636719 14.847656 0.890625 15.046875 1.320312 L 16.230469 3.871094 C 16.707031 4.90625 16.308594 6.085938 15.449219 6.710938 C 13.988281 7.777344 11.976562 9.566406 10.730469 11.429688 C 14.617188 12.324219 17.511719 15.796875 17.511719 19.949219 C 17.511719 24.78125 13.589844 28.695312 8.757812 28.695312 C 3.921875 28.695312 0 24.78125 0 19.949219 Z M 0 19.949219 " fill-opacity="1" fill-rule="nonzero"/></g></g></g></g></svg>