<svg xmlns="http://www.w3.org/2000/svg" xmlns:xlink="http://www.w3.org/1999/xlink" width="50" zoomAndPan="magnify" viewBox="0 0 37.5 37.499999" height="50" preserveAspectRatio="xMidYMid meet" version="1.0"><defs><clipPath id="03fe7790ca"><path d="M 0 0 L 37.007812 0 L 37.007812 37.007812 L 0 37.007812 Z M 0 0 " clip-rule="nonzero"/></clipPath><clipPath id="6935cce406"><path d="M 7.871094 8.140625 L 29.335938 8.140625 L 29.335938 24.425781 L 7.871094 24.425781 Z M 7.871094 8.140625 " clip-rule="nonzero"/></clipPath></defs><g clip-path="url(#03fe7790ca)"><path fill="#ffffff" d="M 0 0 L 37.007812 0 L 37.007812 37.007812 L 0 37.007812 Z M 0 0 " fill-opacity="1" fill-rule="nonzero"/><path fill="#ffffff" d="M 0 0 L 37.007812 0 L 37.007812 37.007812 L 0 37.007812 Z M 0 0 " fill-opacity="1" fill-rule="nonzero"/></g><g clip-path="url(#6935cce406)"><path fill="#d59e25" d="M 17.035156 13.167969 C 17.035156 10.890625 15.183594 9.042969 12.902344 9.042969 C 10.621094 9.042969 8.769531 10.890625 8.769531 13.167969 C 8.769531 15.179688 10.214844 16.859375 12.125 17.21875 C 12.585938 17.308594 12.960938 17.847656 12.648438 18.351562 C 11.863281 19.625 10.519531 20.820312 9.585938 21.5 C 9.402344 21.632812 9.347656 21.859375 9.425781 22.027344 L 9.996094 23.261719 C 11.582031 22.828125 13.144531 21.671875 14.398438 20.144531 C 15.710938 18.539062 16.644531 16.574219 16.898438 14.730469 C 16.96875 14.191406 17.035156 13.675781 17.035156 13.167969 Z M 28.230469 13.167969 C 28.230469 10.890625 26.382812 9.042969 24.097656 9.042969 C 21.816406 9.042969 19.96875 10.890625 19.96875 13.167969 C 19.96875 15.179688 21.410156 16.859375 23.324219 17.21875 C 23.78125 17.308594 24.160156 17.847656 23.847656 18.351562 C 23.058594 19.625 21.714844 20.820312 20.785156 21.5 C 20.597656 21.632812 20.546875 21.859375 20.621094 22.027344 L 21.195312 23.261719 C 22.777344 22.828125 24.339844 21.671875 25.59375 20.144531 C 26.910156 18.539062 27.839844 16.574219 28.09375 14.730469 C 28.167969 14.191406 28.230469 13.675781 28.230469 13.167969 Z M 17.933594 13.167969 C 17.933594 13.746094 17.859375 14.3125 17.785156 14.851562 C 17.507812 16.890625 16.492188 19.003906 15.09375 20.710938 C 13.695312 22.417969 11.875 23.765625 9.953125 24.199219 C 9.675781 24.261719 9.402344 24.117188 9.289062 23.867188 L 8.609375 22.402344 C 8.335938 21.808594 8.566406 21.132812 9.058594 20.773438 C 9.898438 20.160156 11.050781 19.132812 11.769531 18.0625 C 9.535156 17.546875 7.871094 15.554688 7.871094 13.167969 C 7.871094 10.394531 10.125 8.144531 12.902344 8.144531 C 15.679688 8.144531 17.933594 10.394531 17.933594 13.167969 Z M 29.128906 13.167969 C 29.128906 13.746094 29.058594 14.3125 28.984375 14.851562 C 28.703125 16.890625 27.6875 19.003906 26.289062 20.710938 C 24.890625 22.417969 23.074219 23.765625 21.152344 24.199219 C 20.875 24.261719 20.601562 24.117188 20.484375 23.867188 L 19.808594 22.402344 C 19.53125 21.808594 19.761719 21.132812 20.253906 20.773438 C 21.09375 20.160156 22.25 19.132812 22.964844 18.0625 C 20.734375 17.546875 19.070312 15.554688 19.070312 13.167969 C 19.070312 10.394531 21.320312 8.144531 24.097656 8.144531 C 26.875 8.144531 29.128906 10.394531 29.128906 13.167969 Z M 29.128906 13.167969 " fill-opacity="1" fill-rule="nonzero"/></g></svg>