<svg xmlns="http://www.w3.org/2000/svg" xmlns:xlink="http://www.w3.org/1999/xlink" width="50" zoomAndPan="magnify" viewBox="0 0 37.5 37.499999" height="50" preserveAspectRatio="xMidYMid meet" version="1.0"><defs><clipPath id="377ebac3fd"><path d="M 7.871094 8.140625 L 29.335938 8.140625 L 29.335938 24.425781 L 7.871094 24.425781 Z M 7.871094 8.140625 " clip-rule="nonzero"/></clipPath><clipPath id="076e3243a9"><path d="M 0.871094 0.140625 L 22.128906 0.140625 L 22.128906 16.214844 L 0.871094 16.214844 Z M 0.871094 0.140625 " clip-rule="nonzero"/></clipPath><clipPath id="296cd1e2b8"><rect x="0" width="23" y="0" height="17"/></clipPath></defs><g clip-path="url(#377ebac3fd)"><g transform="matrix(1, 0, 0, 1, 7, 8)"><g clip-path="url(#296cd1e2b8)"><g clip-path="url(#076e3243a9)"><path fill="#d59e25" d="M 12.96875 11.191406 C 12.96875 13.464844 14.816406 15.3125 17.097656 15.3125 C 19.382812 15.3125 21.230469 13.464844 21.230469 11.191406 C 21.230469 9.175781 19.785156 7.5 17.875 7.136719 C 17.417969 7.050781 17.039062 6.511719 17.351562 6.007812 C 18.140625 4.730469 19.484375 3.539062 20.414062 2.859375 C 20.597656 2.726562 20.652344 2.496094 20.574219 2.332031 L 20.003906 1.097656 C 18.421875 1.527344 16.855469 2.683594 15.605469 4.214844 C 14.289062 5.820312 13.355469 7.78125 13.105469 9.628906 C 13.03125 10.164062 12.96875 10.679688 12.96875 11.191406 Z M 1.769531 11.191406 C 1.769531 13.464844 3.621094 15.3125 5.902344 15.3125 C 8.183594 15.3125 10.035156 13.464844 10.035156 11.191406 C 10.035156 9.175781 8.589844 7.5 6.679688 7.136719 C 6.21875 7.050781 5.84375 6.511719 6.15625 6.007812 C 6.941406 4.730469 8.285156 3.539062 9.21875 2.859375 C 9.402344 2.726562 9.457031 2.496094 9.378906 2.332031 L 8.808594 1.097656 C 7.222656 1.527344 5.660156 2.683594 4.40625 4.214844 C 3.09375 5.820312 2.160156 7.78125 1.90625 9.628906 C 1.835938 10.164062 1.769531 10.679688 1.769531 11.191406 Z M 12.070312 11.191406 C 12.070312 10.613281 12.140625 10.042969 12.214844 9.503906 C 12.492188 7.46875 13.507812 5.351562 14.910156 3.644531 C 16.304688 1.941406 18.125 0.59375 20.046875 0.160156 C 20.324219 0.0976562 20.597656 0.242188 20.710938 0.488281 L 21.390625 1.953125 C 21.667969 2.550781 21.4375 3.226562 20.945312 3.585938 C 20.105469 4.195312 18.949219 5.226562 18.234375 6.296875 C 20.464844 6.808594 22.128906 8.804688 22.128906 11.191406 C 22.128906 13.964844 19.875 16.210938 17.097656 16.210938 C 14.320312 16.210938 12.070312 13.964844 12.070312 11.191406 Z M 0.871094 11.191406 C 0.871094 10.613281 0.945312 10.042969 1.019531 9.503906 C 1.296875 7.46875 2.3125 5.351562 3.710938 3.644531 C 5.109375 1.941406 6.929688 0.59375 8.851562 0.160156 C 9.128906 0.0976562 9.402344 0.242188 9.515625 0.488281 L 10.195312 1.953125 C 10.46875 2.550781 10.238281 3.226562 9.746094 3.585938 C 8.90625 4.195312 7.753906 5.226562 7.035156 6.296875 C 9.269531 6.808594 10.933594 8.804688 10.933594 11.191406 C 10.933594 13.964844 8.679688 16.210938 5.902344 16.210938 C 3.125 16.210938 0.871094 13.964844 0.871094 11.191406 Z M 0.871094 11.191406 " fill-opacity="1" fill-rule="nonzero"/></g></g></g></g></svg>