<?xml version="1.0" encoding="UTF-8"?>
<svg id="Camada_2" xmlns="http://www.w3.org/2000/svg" version="1.1" viewBox="0 0 397.35 397.35">
  <!-- Generator: Adobe Illustrator 29.6.1, SVG Export Plug-In . SVG Version: 2.1.1 Build 9)  -->
  <defs>
    <style>
      .st0 {
        fill: #fff;
      }

      .st1 {
        display: none;
        fill: #1a1a1a;
      }
    </style>
  </defs>
  <path class="st1" d="M401.57,186.86c0,109.73-88.95,198.68-198.68,198.68h0c-109.72,0-198.67-88.96-198.67-198.68h0C4.22,77.13,93.17-11.82,202.9-11.82h0c109.73,0,198.68,88.95,198.68,198.68h0Z"/>
  <path class="st0" d="M256.8,82.64h-107.81c-27.78,0-50.31,22.53-50.31,50.31v107.81c0,27.78,22.53,50.31,50.31,50.31h107.81c27.78,0,50.31-22.53,50.31-50.31v-107.81c0-27.78-22.53-50.31-50.31-50.31h0ZM289.14,237.17c0,19.84-16.1,35.94-35.94,35.94h-100.62c-19.84,0-35.94-16.1-35.94-35.94v-100.62c0-19.84,16.1-35.94,35.94-35.94h100.62c19.84,0,35.94,16.1,35.94,35.94v100.62h0Z"/>
  <path class="st0" d="M203,132.95c-29.75,0-53.9,24.15-53.9,53.9s24.15,53.9,53.9,53.9,53.9-24.15,53.9-53.9-24.15-53.9-53.9-53.9h0ZM203,222.79c-19.8,0-35.94-16.14-35.94-35.94s16.14-35.94,35.94-35.94,35.94,16.14,35.94,35.94-16.14,35.94-35.94,35.94Z"/>
  <path class="st0" d="M260.5,140.14c-5.94,0-10.78-4.84-10.78-10.78s4.84-10.78,10.78-10.78,10.78,4.84,10.78,10.78-4.84,10.78-10.78,10.78Z"/>
</svg>